<mxfile host="app.diagrams.net" modified="2021-07-31T14:07:25.404Z" agent="5.0 (Windows NT 10.0; Win64; x64) AppleWebKit/537.36 (KHTML, like Gecko) Chrome/92.0.4515.107 Safari/537.36" etag="W9Fmxcn3rSxQKxMzF7Aa" version="14.9.0" type="github">
  <diagram id="X9-GEROblfalyMDT-lFi" name="Page-1">
    <mxGraphModel dx="537" dy="714" grid="1" gridSize="10" guides="1" tooltips="1" connect="1" arrows="1" fold="1" page="1" pageScale="1" pageWidth="827" pageHeight="1169" math="0" shadow="0">
      <root>
        <mxCell id="0" />
        <mxCell id="1" parent="0" />
        <mxCell id="103Hfg5r_FdZlPQHyQeY-2" value="Room Controller" style="html=1;" vertex="1" parent="1">
          <mxGeometry x="24" y="180" width="110" height="50" as="geometry" />
        </mxCell>
        <mxCell id="103Hfg5r_FdZlPQHyQeY-68" style="edgeStyle=orthogonalEdgeStyle;rounded=0;orthogonalLoop=1;jettySize=auto;html=1;entryX=0.5;entryY=1;entryDx=0;entryDy=0;" edge="1" parent="1" source="103Hfg5r_FdZlPQHyQeY-3" target="103Hfg5r_FdZlPQHyQeY-14">
          <mxGeometry relative="1" as="geometry" />
        </mxCell>
        <mxCell id="103Hfg5r_FdZlPQHyQeY-3" value="«interface»&lt;br&gt;&lt;b&gt;Chat Room &lt;br&gt;Manager&lt;/b&gt;" style="html=1;" vertex="1" parent="1">
          <mxGeometry x="24" y="630" width="110" height="50" as="geometry" />
        </mxCell>
        <mxCell id="103Hfg5r_FdZlPQHyQeY-4" value="Chat Controller" style="html=1;" vertex="1" parent="1">
          <mxGeometry x="234" y="180" width="110" height="50" as="geometry" />
        </mxCell>
        <mxCell id="103Hfg5r_FdZlPQHyQeY-18" style="edgeStyle=orthogonalEdgeStyle;rounded=0;orthogonalLoop=1;jettySize=auto;html=1;entryX=0.5;entryY=1;entryDx=0;entryDy=0;" edge="1" parent="1" source="103Hfg5r_FdZlPQHyQeY-5" target="103Hfg5r_FdZlPQHyQeY-4">
          <mxGeometry relative="1" as="geometry" />
        </mxCell>
        <mxCell id="103Hfg5r_FdZlPQHyQeY-5" value="«interface»&lt;br&gt;&lt;b&gt;Chat Service&lt;/b&gt;" style="html=1;" vertex="1" parent="1">
          <mxGeometry x="234" y="335" width="110" height="50" as="geometry" />
        </mxCell>
        <mxCell id="103Hfg5r_FdZlPQHyQeY-6" value="Chat Room &lt;br&gt;Manager" style="html=1;" vertex="1" parent="1">
          <mxGeometry x="24" y="730" width="110" height="50" as="geometry" />
        </mxCell>
        <mxCell id="103Hfg5r_FdZlPQHyQeY-7" value="" style="endArrow=block;dashed=1;endFill=0;endSize=12;html=1;exitX=0.5;exitY=1;exitDx=0;exitDy=0;" edge="1" parent="1" source="103Hfg5r_FdZlPQHyQeY-3" target="103Hfg5r_FdZlPQHyQeY-6">
          <mxGeometry width="160" relative="1" as="geometry">
            <mxPoint x="244" y="830" as="sourcePoint" />
            <mxPoint x="404" y="830" as="targetPoint" />
          </mxGeometry>
        </mxCell>
        <mxCell id="103Hfg5r_FdZlPQHyQeY-69" style="edgeStyle=orthogonalEdgeStyle;rounded=0;orthogonalLoop=1;jettySize=auto;html=1;entryX=0.5;entryY=1;entryDx=0;entryDy=0;" edge="1" parent="1" source="103Hfg5r_FdZlPQHyQeY-10" target="103Hfg5r_FdZlPQHyQeY-62">
          <mxGeometry relative="1" as="geometry" />
        </mxCell>
        <mxCell id="103Hfg5r_FdZlPQHyQeY-81" style="edgeStyle=orthogonalEdgeStyle;rounded=0;orthogonalLoop=1;jettySize=auto;html=1;entryX=0.5;entryY=1;entryDx=0;entryDy=0;" edge="1" parent="1" source="103Hfg5r_FdZlPQHyQeY-10" target="103Hfg5r_FdZlPQHyQeY-24">
          <mxGeometry relative="1" as="geometry" />
        </mxCell>
        <mxCell id="103Hfg5r_FdZlPQHyQeY-12" value="" style="endArrow=block;dashed=1;endFill=0;endSize=12;html=1;exitX=0.5;exitY=1;exitDx=0;exitDy=0;entryX=0.5;entryY=0;entryDx=0;entryDy=0;" edge="1" parent="1" source="103Hfg5r_FdZlPQHyQeY-5" target="103Hfg5r_FdZlPQHyQeY-10">
          <mxGeometry width="160" relative="1" as="geometry">
            <mxPoint x="244" y="415" as="sourcePoint" />
            <mxPoint x="404" y="415" as="targetPoint" />
          </mxGeometry>
        </mxCell>
        <mxCell id="103Hfg5r_FdZlPQHyQeY-17" style="edgeStyle=orthogonalEdgeStyle;rounded=0;orthogonalLoop=1;jettySize=auto;html=1;entryX=0.5;entryY=1;entryDx=0;entryDy=0;" edge="1" parent="1" source="103Hfg5r_FdZlPQHyQeY-13" target="103Hfg5r_FdZlPQHyQeY-2">
          <mxGeometry relative="1" as="geometry" />
        </mxCell>
        <mxCell id="103Hfg5r_FdZlPQHyQeY-13" value="«interface»&lt;br&gt;&lt;b&gt;Room Service&lt;/b&gt;" style="html=1;" vertex="1" parent="1">
          <mxGeometry x="24" y="335" width="110" height="50" as="geometry" />
        </mxCell>
        <mxCell id="103Hfg5r_FdZlPQHyQeY-83" style="edgeStyle=orthogonalEdgeStyle;rounded=0;orthogonalLoop=1;jettySize=auto;html=1;entryX=0.25;entryY=1;entryDx=0;entryDy=0;" edge="1" parent="1" source="103Hfg5r_FdZlPQHyQeY-14" target="103Hfg5r_FdZlPQHyQeY-62">
          <mxGeometry relative="1" as="geometry" />
        </mxCell>
        <mxCell id="103Hfg5r_FdZlPQHyQeY-14" value="Room Service" style="html=1;" vertex="1" parent="1">
          <mxGeometry x="24" y="445" width="110" height="50" as="geometry" />
        </mxCell>
        <mxCell id="103Hfg5r_FdZlPQHyQeY-15" value="" style="endArrow=block;dashed=1;endFill=0;endSize=12;html=1;exitX=0.5;exitY=1;exitDx=0;exitDy=0;entryX=0.5;entryY=0;entryDx=0;entryDy=0;" edge="1" source="103Hfg5r_FdZlPQHyQeY-13" target="103Hfg5r_FdZlPQHyQeY-14" parent="1">
          <mxGeometry width="160" relative="1" as="geometry">
            <mxPoint x="34" y="415" as="sourcePoint" />
            <mxPoint x="194" y="415" as="targetPoint" />
          </mxGeometry>
        </mxCell>
        <mxCell id="103Hfg5r_FdZlPQHyQeY-19" value="«interface»&lt;br&gt;&lt;b&gt;Engine&lt;/b&gt;" style="html=1;" vertex="1" parent="1">
          <mxGeometry x="584" y="40" width="110" height="50" as="geometry" />
        </mxCell>
        <mxCell id="103Hfg5r_FdZlPQHyQeY-20" value="«interface»&lt;br&gt;&lt;b&gt;Packet Command&lt;/b&gt;" style="html=1;" vertex="1" parent="1">
          <mxGeometry x="1210" y="335" width="110" height="50" as="geometry" />
        </mxCell>
        <mxCell id="103Hfg5r_FdZlPQHyQeY-71" style="edgeStyle=orthogonalEdgeStyle;rounded=0;orthogonalLoop=1;jettySize=auto;html=1;entryX=0;entryY=0.5;entryDx=0;entryDy=0;" edge="1" parent="1" source="103Hfg5r_FdZlPQHyQeY-24" target="103Hfg5r_FdZlPQHyQeY-45">
          <mxGeometry relative="1" as="geometry" />
        </mxCell>
        <mxCell id="103Hfg5r_FdZlPQHyQeY-24" value="Packet Parsing&lt;br&gt;Engine&amp;nbsp;" style="html=1;" vertex="1" parent="1">
          <mxGeometry x="700" y="180" width="110" height="50" as="geometry" />
        </mxCell>
        <mxCell id="103Hfg5r_FdZlPQHyQeY-29" value="«interface»&lt;br&gt;&lt;b&gt;IPacket&lt;/b&gt;" style="html=1;" vertex="1" parent="1">
          <mxGeometry x="1210" y="530" width="110" height="50" as="geometry" />
        </mxCell>
        <mxCell id="103Hfg5r_FdZlPQHyQeY-30" value="Web Socket Stream" style="ellipse;whiteSpace=wrap;html=1;" vertex="1" parent="1">
          <mxGeometry x="930" y="170" width="120" height="80" as="geometry" />
        </mxCell>
        <mxCell id="103Hfg5r_FdZlPQHyQeY-33" style="edgeStyle=orthogonalEdgeStyle;rounded=0;orthogonalLoop=1;jettySize=auto;html=1;entryX=0.5;entryY=1;entryDx=0;entryDy=0;" edge="1" parent="1" source="103Hfg5r_FdZlPQHyQeY-32" target="103Hfg5r_FdZlPQHyQeY-6">
          <mxGeometry relative="1" as="geometry" />
        </mxCell>
        <mxCell id="103Hfg5r_FdZlPQHyQeY-32" value="ChatRoom" style="html=1;" vertex="1" parent="1">
          <mxGeometry x="24" y="830" width="110" height="50" as="geometry" />
        </mxCell>
        <mxCell id="103Hfg5r_FdZlPQHyQeY-40" style="edgeStyle=orthogonalEdgeStyle;rounded=0;orthogonalLoop=1;jettySize=auto;html=1;entryX=0.5;entryY=1;entryDx=0;entryDy=0;" edge="1" parent="1" source="103Hfg5r_FdZlPQHyQeY-34" target="103Hfg5r_FdZlPQHyQeY-38">
          <mxGeometry relative="1" as="geometry" />
        </mxCell>
        <mxCell id="103Hfg5r_FdZlPQHyQeY-34" value="Chat User" style="html=1;" vertex="1" parent="1">
          <mxGeometry x="234" y="830" width="110" height="50" as="geometry" />
        </mxCell>
        <mxCell id="103Hfg5r_FdZlPQHyQeY-36" style="edgeStyle=orthogonalEdgeStyle;rounded=0;orthogonalLoop=1;jettySize=auto;html=1;entryX=1;entryY=0.5;entryDx=0;entryDy=0;" edge="1" parent="1" source="103Hfg5r_FdZlPQHyQeY-35" target="103Hfg5r_FdZlPQHyQeY-34">
          <mxGeometry relative="1" as="geometry" />
        </mxCell>
        <mxCell id="103Hfg5r_FdZlPQHyQeY-35" value="Socket Clinet" style="html=1;" vertex="1" parent="1">
          <mxGeometry x="414" y="830" width="110" height="50" as="geometry" />
        </mxCell>
        <mxCell id="103Hfg5r_FdZlPQHyQeY-67" style="edgeStyle=orthogonalEdgeStyle;rounded=0;orthogonalLoop=1;jettySize=auto;html=1;entryX=0.5;entryY=1;entryDx=0;entryDy=0;" edge="1" parent="1" source="103Hfg5r_FdZlPQHyQeY-37" target="103Hfg5r_FdZlPQHyQeY-10">
          <mxGeometry relative="1" as="geometry" />
        </mxCell>
        <mxCell id="103Hfg5r_FdZlPQHyQeY-37" value="«interface»&lt;br&gt;&lt;b&gt;Chat User&lt;br&gt;Manager&lt;/b&gt;" style="html=1;" vertex="1" parent="1">
          <mxGeometry x="234" y="630" width="110" height="50" as="geometry" />
        </mxCell>
        <mxCell id="103Hfg5r_FdZlPQHyQeY-38" value="Chat User&lt;br&gt;Manager" style="html=1;" vertex="1" parent="1">
          <mxGeometry x="234" y="730" width="110" height="50" as="geometry" />
        </mxCell>
        <mxCell id="103Hfg5r_FdZlPQHyQeY-39" value="" style="endArrow=block;dashed=1;endFill=0;endSize=12;html=1;entryX=0.5;entryY=0;entryDx=0;entryDy=0;" edge="1" parent="1" source="103Hfg5r_FdZlPQHyQeY-37" target="103Hfg5r_FdZlPQHyQeY-38">
          <mxGeometry width="160" relative="1" as="geometry">
            <mxPoint x="264" y="830" as="sourcePoint" />
            <mxPoint x="424" y="830" as="targetPoint" />
          </mxGeometry>
        </mxCell>
        <mxCell id="103Hfg5r_FdZlPQHyQeY-72" style="edgeStyle=orthogonalEdgeStyle;rounded=0;orthogonalLoop=1;jettySize=auto;html=1;entryX=0.5;entryY=1;entryDx=0;entryDy=0;" edge="1" parent="1" source="103Hfg5r_FdZlPQHyQeY-41" target="103Hfg5r_FdZlPQHyQeY-30">
          <mxGeometry relative="1" as="geometry" />
        </mxCell>
        <mxCell id="103Hfg5r_FdZlPQHyQeY-41" value="«interface»&lt;br&gt;&lt;b&gt;Web Socket &lt;br&gt;Service&lt;/b&gt;" style="html=1;" vertex="1" parent="1">
          <mxGeometry x="935" y="320" width="110" height="50" as="geometry" />
        </mxCell>
        <mxCell id="103Hfg5r_FdZlPQHyQeY-42" value="Web Socket &lt;br&gt;Service" style="html=1;" vertex="1" parent="1">
          <mxGeometry x="935" y="430" width="110" height="50" as="geometry" />
        </mxCell>
        <mxCell id="103Hfg5r_FdZlPQHyQeY-43" value="" style="endArrow=block;dashed=1;endFill=0;endSize=12;html=1;entryX=0.5;entryY=0;entryDx=0;entryDy=0;" edge="1" parent="1" source="103Hfg5r_FdZlPQHyQeY-41" target="103Hfg5r_FdZlPQHyQeY-42">
          <mxGeometry width="160" relative="1" as="geometry">
            <mxPoint x="575" y="375" as="sourcePoint" />
            <mxPoint x="735" y="375" as="targetPoint" />
          </mxGeometry>
        </mxCell>
        <mxCell id="103Hfg5r_FdZlPQHyQeY-44" value="" style="endArrow=block;dashed=1;endFill=0;endSize=12;html=1;entryX=0.5;entryY=0;entryDx=0;entryDy=0;exitX=0.5;exitY=1;exitDx=0;exitDy=0;" edge="1" parent="1" source="103Hfg5r_FdZlPQHyQeY-19" target="103Hfg5r_FdZlPQHyQeY-24">
          <mxGeometry width="160" relative="1" as="geometry">
            <mxPoint x="204" y="550" as="sourcePoint" />
            <mxPoint x="364" y="550" as="targetPoint" />
          </mxGeometry>
        </mxCell>
        <mxCell id="103Hfg5r_FdZlPQHyQeY-52" style="edgeStyle=orthogonalEdgeStyle;rounded=0;orthogonalLoop=1;jettySize=auto;html=1;entryX=0.5;entryY=1;entryDx=0;entryDy=0;" edge="1" parent="1" source="103Hfg5r_FdZlPQHyQeY-45" target="103Hfg5r_FdZlPQHyQeY-47">
          <mxGeometry relative="1" as="geometry" />
        </mxCell>
        <mxCell id="103Hfg5r_FdZlPQHyQeY-45" value="Packet" style="html=1;" vertex="1" parent="1">
          <mxGeometry x="935" y="630" width="110" height="50" as="geometry" />
        </mxCell>
        <mxCell id="103Hfg5r_FdZlPQHyQeY-61" style="edgeStyle=orthogonalEdgeStyle;rounded=0;orthogonalLoop=1;jettySize=auto;html=1;entryX=0.5;entryY=1;entryDx=0;entryDy=0;" edge="1" parent="1" source="103Hfg5r_FdZlPQHyQeY-47" target="103Hfg5r_FdZlPQHyQeY-42">
          <mxGeometry relative="1" as="geometry" />
        </mxCell>
        <mxCell id="103Hfg5r_FdZlPQHyQeY-47" value="Packet Parsing &lt;br&gt;Command" style="html=1;" vertex="1" parent="1">
          <mxGeometry x="935" y="530" width="110" height="50" as="geometry" />
        </mxCell>
        <mxCell id="103Hfg5r_FdZlPQHyQeY-48" value="" style="endArrow=block;dashed=1;endFill=0;endSize=12;html=1;exitX=0.5;exitY=1;exitDx=0;exitDy=0;entryX=1;entryY=0.5;entryDx=0;entryDy=0;" edge="1" parent="1" source="103Hfg5r_FdZlPQHyQeY-20" target="103Hfg5r_FdZlPQHyQeY-47">
          <mxGeometry width="160" relative="1" as="geometry">
            <mxPoint x="615" y="1010" as="sourcePoint" />
            <mxPoint x="775" y="1010" as="targetPoint" />
          </mxGeometry>
        </mxCell>
        <mxCell id="103Hfg5r_FdZlPQHyQeY-62" value="Chat&lt;br&gt;Engine&amp;nbsp;" style="html=1;" vertex="1" parent="1">
          <mxGeometry x="469" y="180" width="110" height="50" as="geometry" />
        </mxCell>
        <mxCell id="103Hfg5r_FdZlPQHyQeY-63" value="" style="endArrow=block;dashed=1;endFill=0;endSize=12;html=1;entryX=0.5;entryY=0;entryDx=0;entryDy=0;exitX=0.5;exitY=1;exitDx=0;exitDy=0;" edge="1" parent="1" source="103Hfg5r_FdZlPQHyQeY-19" target="103Hfg5r_FdZlPQHyQeY-62">
          <mxGeometry width="160" relative="1" as="geometry">
            <mxPoint x="204" y="550" as="sourcePoint" />
            <mxPoint x="364" y="550" as="targetPoint" />
          </mxGeometry>
        </mxCell>
        <mxCell id="103Hfg5r_FdZlPQHyQeY-65" value="" style="endArrow=block;dashed=1;endFill=0;endSize=12;html=1;exitX=0.5;exitY=1;exitDx=0;exitDy=0;entryX=1;entryY=0.5;entryDx=0;entryDy=0;" edge="1" parent="1" source="103Hfg5r_FdZlPQHyQeY-29" target="103Hfg5r_FdZlPQHyQeY-45">
          <mxGeometry width="160" relative="1" as="geometry">
            <mxPoint x="615" y="1010" as="sourcePoint" />
            <mxPoint x="775" y="1010" as="targetPoint" />
          </mxGeometry>
        </mxCell>
        <mxCell id="103Hfg5r_FdZlPQHyQeY-80" style="edgeStyle=orthogonalEdgeStyle;rounded=0;orthogonalLoop=1;jettySize=auto;html=1;entryX=0.5;entryY=1;entryDx=0;entryDy=0;" edge="1" parent="1" source="103Hfg5r_FdZlPQHyQeY-73" target="103Hfg5r_FdZlPQHyQeY-74">
          <mxGeometry relative="1" as="geometry" />
        </mxCell>
        <mxCell id="103Hfg5r_FdZlPQHyQeY-84" style="edgeStyle=orthogonalEdgeStyle;rounded=0;orthogonalLoop=1;jettySize=auto;html=1;entryX=0.75;entryY=1;entryDx=0;entryDy=0;" edge="1" parent="1" source="103Hfg5r_FdZlPQHyQeY-73" target="103Hfg5r_FdZlPQHyQeY-10">
          <mxGeometry relative="1" as="geometry">
            <Array as="points">
              <mxPoint x="450" y="655" />
              <mxPoint x="450" y="580" />
              <mxPoint x="317" y="580" />
            </Array>
          </mxGeometry>
        </mxCell>
        <mxCell id="103Hfg5r_FdZlPQHyQeY-73" value="Send Chat&lt;br&gt;Command" style="html=1;" vertex="1" parent="1">
          <mxGeometry x="570" y="745" width="110" height="50" as="geometry" />
        </mxCell>
        <mxCell id="103Hfg5r_FdZlPQHyQeY-74" value="«interface»&lt;br&gt;&lt;b&gt;Chat Command&lt;/b&gt;" style="html=1;" vertex="1" parent="1">
          <mxGeometry x="570" y="630" width="110" height="50" as="geometry" />
        </mxCell>
        <mxCell id="103Hfg5r_FdZlPQHyQeY-75" value="«interface»&lt;br&gt;&lt;b&gt;Command&lt;/b&gt;" style="html=1;" vertex="1" parent="1">
          <mxGeometry x="1210" y="240" width="110" height="50" as="geometry" />
        </mxCell>
        <mxCell id="103Hfg5r_FdZlPQHyQeY-79" value="" style="endArrow=block;dashed=1;endFill=0;endSize=12;html=1;" edge="1" parent="1" target="103Hfg5r_FdZlPQHyQeY-75">
          <mxGeometry width="160" relative="1" as="geometry">
            <mxPoint x="1265" y="350" as="sourcePoint" />
            <mxPoint x="775" y="1010" as="targetPoint" />
          </mxGeometry>
        </mxCell>
        <mxCell id="103Hfg5r_FdZlPQHyQeY-10" value="Chat Service" style="html=1;" vertex="1" parent="1">
          <mxGeometry x="234" y="445" width="110" height="50" as="geometry" />
        </mxCell>
      </root>
    </mxGraphModel>
  </diagram>
</mxfile>
